<?xml version="1.0" standalone="no"?>
<!DOCTYPE svg PUBLIC "-//W3C//DTD SVG 20010904//EN"
 "http://www.w3.org/TR/2001/REC-SVG-20010904/DTD/svg10.dtd">
<svg version="1.0" xmlns="http://www.w3.org/2000/svg"
 width="512.000000pt" height="512.000000pt" viewBox="0 0 512.000000 512.000000"
 preserveAspectRatio="xMidYMid meet">
<metadata>
Created by potrace 1.11, written by Peter Selinger 2001-2013
</metadata>
<g transform="translate(0.000000,512.000000) scale(0.100000,-0.100000)"
fill="#000000" stroke="none">
<path d="M2460 5104 c-111 -40 -196 -137 -214 -244 -3 -14 -5 -111 -5 -217
l-1 -192 -37 -6 c-82 -14 -284 -73 -348 -101 -142 -63 -221 -102 -285 -141
-348 -215 -619 -526 -775 -893 -37 -87 -101 -284 -110 -343 -3 -17 -8 -44 -11
-59 l-6 -28 -197 0 c-157 0 -208 -3 -247 -16 -87 -30 -146 -81 -190 -165 -26
-47 -29 -64 -28 -139 0 -68 5 -95 24 -134 30 -62 93 -125 155 -156 47 -23 61
-25 267 -28 l217 -4 7 -36 c25 -149 84 -324 164 -487 226 -461 631 -814 1118
-975 103 -33 151 -46 251 -65 13 -2 25 -6 26 -7 2 -2 5 -100 7 -218 3 -204 5
-218 28 -265 72 -148 237 -217 392 -166 77 26 151 92 188 166 23 48 25 61 28
267 l4 217 36 7 c210 36 509 156 692 279 444 298 733 731 835 1252 l6 32 217
3 c207 3 219 4 267 28 64 31 124 92 155 155 35 73 35 199 0 270 -43 86 -121
152 -202 171 -18 4 -36 9 -40 10 -5 1 -95 2 -202 3 l-195 1 -11 58 c-18 90
-46 194 -63 235 -9 20 -17 41 -18 45 -9 39 -69 175 -111 252 -194 356 -489
639 -848 813 -129 63 -314 127 -435 152 -44 9 -80 17 -81 18 -1 1 -4 99 -6
217 -3 206 -4 217 -28 265 -32 64 -93 125 -153 153 -65 31 -176 38 -237 16z
m-217 -1509 c3 -144 5 -165 27 -209 30 -63 93 -126 155 -156 73 -35 199 -35
270 0 64 31 124 91 155 155 22 45 24 65 27 210 2 88 5 170 6 182 l2 21 83 -28
c192 -64 374 -181 512 -327 87 -93 93 -100 141 -173 61 -92 110 -190 145 -290
l34 -95 -183 -5 c-167 -5 -186 -7 -232 -30 -64 -31 -124 -91 -155 -155 -20
-41 -24 -65 -24 -135 0 -102 24 -160 91 -227 78 -77 129 -91 334 -93 90 0 164
-2 165 -3 1 -1 -11 -40 -26 -86 -63 -186 -162 -343 -310 -491 -148 -149 -300
-244 -492 -309 -83 -29 -83 -29 -85 -7 -1 11 -4 93 -5 181 -3 147 -5 164 -28
210 -121 243 -450 246 -576 4 -28 -52 -29 -60 -32 -214 -1 -88 -4 -170 -5
-182 l-2 -21 -83 28 c-186 62 -343 162 -492 310 -149 148 -244 298 -310 490
l-29 85 177 6 c207 6 244 16 318 87 74 70 98 128 98 232 1 71 -3 93 -24 135
-32 64 -92 124 -155 155 -46 22 -66 25 -231 30 l-181 5 24 75 c60 187 169 360
321 510 143 140 297 236 483 300 l84 29 2 -22 c1 -12 4 -94 6 -182z"/>
</g>
</svg>
